<svg width="100" height="100" viewBox="0 0 100 100" fill="none" xmlns="http://www.w3.org/2000/svg">
<rect width="100" height="100" fill="#F5F5F5"/>
<rect width="100" height="100" fill="white"/>
<path d="M34.3531 26.4129C34.4446 25.6473 35.5554 25.6473 35.6469 26.4129L35.9185 28.6856C35.999 29.3593 36.9273 29.4766 37.1728 28.8441L38.0011 26.7103C38.2801 25.9915 39.356 26.2677 39.2543 27.032L38.9521 29.3009C38.8626 29.9735 39.7325 30.3179 40.1276 29.7663L41.4605 27.9056C41.9095 27.2787 42.8829 27.8139 42.5943 28.5289L41.7374 30.6513C41.4834 31.2805 42.2403 31.8304 42.7602 31.3944L44.514 29.9236C45.1048 29.4281 45.9145 30.1886 45.4571 30.8093L44.0994 32.652C43.6969 33.1982 44.2932 33.9191 44.9052 33.6261L46.9697 32.6376C47.6651 32.3047 48.2603 33.2426 47.6629 33.73L45.8896 35.1772C45.3639 35.6061 45.7622 36.4527 46.4278 36.3211L48.6733 35.8771C49.4297 35.7275 49.7729 36.784 49.0731 37.1076L46.9955 38.0682C46.3797 38.353 46.555 39.272 47.2324 39.3101L49.5177 39.4384C50.2875 39.4817 50.3573 40.5903 49.5989 40.7297L47.3478 41.1435C46.6804 41.2661 46.6217 42.1999 47.2684 42.4052L49.45 43.0979C50.1848 43.3312 49.9767 44.4224 49.2075 44.3688L46.9242 44.2097C46.2473 44.1626 45.9582 45.0524 46.5335 45.4121L48.4743 46.6256C49.128 47.0343 48.6551 48.0394 47.9234 47.7962L45.7513 47.0743C45.1074 46.8603 44.6061 47.6503 45.0739 48.1418L46.6519 49.7997C47.1835 50.3582 46.4754 51.2141 45.8272 50.7966L43.9029 49.5572C43.3325 49.1898 42.6505 49.8303 42.9813 50.4227L44.0975 52.421C44.4734 53.0941 43.5748 53.7471 43.0507 53.1815L41.4951 51.5025C41.034 51.0047 40.2141 51.4555 40.3873 52.1115L40.9714 54.3246C41.1681 55.0701 40.1353 55.4791 39.7684 54.8009L38.6792 52.7878C38.3563 52.191 37.4501 52.4237 37.4547 53.1022L37.4701 55.391C37.4752 56.162 36.3732 56.3013 36.1864 55.5532L35.6321 53.3324C35.4678 52.6741 34.5322 52.6741 34.3679 53.3324L33.8136 55.5532C33.6268 56.3013 32.5248 56.162 32.5299 55.391L32.5453 53.1022C32.5499 52.4237 31.6437 52.191 31.3208 52.7878L30.2316 54.8009C29.8647 55.4791 28.8319 55.0701 29.0286 54.3246L29.6127 52.1115C29.7859 51.4555 28.966 51.0047 28.5049 51.5025L26.9493 53.1815C26.4252 53.7471 25.5266 53.0941 25.9025 52.421L27.0187 50.4227C27.3495 49.8303 26.6675 49.1898 26.0971 49.5572L24.1728 50.7966C23.5246 51.2141 22.8165 50.3582 23.3481 49.7997L24.9261 48.1418C25.3939 47.6503 24.8926 46.8603 24.2487 47.0743L22.0766 47.7962C21.3449 48.0394 20.872 47.0343 21.5257 46.6256L23.4665 45.4121C24.0418 45.0524 23.7527 44.1626 23.0758 44.2097L20.7925 44.3688C20.0233 44.4224 19.8152 43.3312 20.55 43.0979L22.7316 42.4052C23.3783 42.1999 23.3196 41.2661 22.6522 41.1435L20.4011 40.7297C19.6427 40.5903 19.7125 39.4817 20.4823 39.4384L22.7676 39.3101C23.445 39.272 23.6203 38.353 23.0045 38.0682L20.9269 37.1076C20.2271 36.784 20.5703 35.7275 21.3267 35.8771L23.5722 36.3211C24.2378 36.4527 24.6361 35.6061 24.1104 35.1772L22.3371 33.73C21.7397 33.2426 22.3349 32.3047 23.0303 32.6376L25.0948 33.6261C25.7068 33.9191 26.3031 33.1982 25.9006 32.652L24.5429 30.8093C24.0855 30.1886 24.8952 29.4282 25.486 29.9236L27.2398 31.3944C27.7597 31.8304 28.5166 31.2805 28.2626 30.6513L27.4057 28.5289C27.1171 27.8139 28.0905 27.2787 28.5395 27.9056L29.8724 29.7663C30.2675 30.3179 31.1374 29.9735 31.0479 29.3009L30.7457 27.032C30.644 26.2677 31.7199 25.9915 31.9989 26.7103L32.8272 28.8441C33.0727 29.4766 34.001 29.3593 34.0815 28.6856L34.3531 26.4129Z" fill="#353535"/>
<circle cx="35" cy="41" r="5" fill="white"/>
<path d="M53.8642 43.8424C54.0161 43.1633 54.9839 43.1633 55.1358 43.8424L55.68 46.2752C55.7974 46.8003 56.4647 46.9648 56.8127 46.5544L58.4251 44.6531C58.8752 44.1224 59.7322 44.5722 59.5511 45.2441L58.9023 47.6512C58.7623 48.1707 59.2767 48.6264 59.7755 48.4248L62.0869 47.4906C62.732 47.2299 63.2818 48.0263 62.8092 48.5371L61.1162 50.367C60.7508 50.7619 60.9945 51.4045 61.5298 51.4578L64.0106 51.7047C64.703 51.7737 64.8196 52.7344 64.1638 52.9671L61.8143 53.8005C61.3072 53.9804 61.2244 54.6626 61.6737 54.9586L63.7555 56.3302C64.3366 56.713 63.9934 57.6179 63.3046 57.5191L60.8368 57.1653C60.3042 57.0889 59.9139 57.6544 60.1741 58.1253L61.3801 60.3072C61.7167 60.9162 60.9923 61.558 60.4283 61.1504L58.4077 59.6903C57.9716 59.3752 57.3631 59.6945 57.3747 60.2324L57.4285 62.7248C57.4436 63.4205 56.5039 63.6521 56.1939 63.0291L55.0833 60.7972C54.8436 60.3155 54.1564 60.3155 53.9167 60.7972L52.8061 63.0291C52.4961 63.6521 51.5564 63.4205 51.5715 62.7248L51.6253 60.2324C51.6369 59.6945 51.0284 59.3752 50.5923 59.6903L48.5717 61.1504C48.0077 61.558 47.2833 60.9162 47.6199 60.3072L48.8259 58.1253C49.0861 57.6544 48.6958 57.0889 48.1632 57.1653L45.6954 57.5191C45.0066 57.6179 44.6634 56.713 45.2445 56.3302L47.3263 54.9586C47.7756 54.6626 47.6928 53.9804 47.1857 53.8005L44.8362 52.9671C44.1804 52.7344 44.297 51.7737 44.9894 51.7047L47.4702 51.4578C48.0055 51.4045 48.2492 50.7619 47.8838 50.367L46.1908 48.5371C45.7182 48.0263 46.268 47.2299 46.9131 47.4906L49.2245 48.4248C49.7233 48.6264 50.2377 48.1707 50.0977 47.6512L49.4489 45.2441C49.2678 44.5722 50.1248 44.1224 50.5749 44.6531L52.1873 46.5544C52.5353 46.9648 53.2026 46.8003 53.32 46.2752L53.8642 43.8424Z" fill="#333030"/>
<circle cx="54.125" cy="53.125" r="3.125" fill="white"/>
</svg>
