<svg width="346" height="136" viewBox="0 0 346 136" fill="none" xmlns="http://www.w3.org/2000/svg">
<path d="M7.00015 20C17 0 24.0001 0 38.0001 0C52.0001 0 69.0834 0 89.0002 0C89.0002 37.4903 89.0002 58.5097 89.0002 96C56.9772 96 15.0003 96 7.00015 96C-1 96 -2.99967 40 7.00015 20Z" fill="#181818"/>
<path d="M101.63 10.5628C101.294 7.59745 103.614 5 106.598 5H331.274C334.303 5 336.637 7.67203 336.229 10.6735L324.537 96.6735C324.201 99.1519 322.084 101 319.583 101H116.341C113.797 101 111.659 99.0903 111.373 96.5628L101.63 10.5628Z" fill="black"/>
<path d="M0 106.5C0 100.701 4.70101 96 10.5 96H335.5C341.299 96 346 100.701 346 106.5V106.5C346 112.299 341.156 117 335.357 117C125.68 117 38.0242 117 10.4335 117C4.63453 117 0 112.299 0 106.5V106.5Z" fill="black"/>
<path d="M5 26H51V48H0.5L2 35L4.5 26.5L5 26Z" fill="#FFF9F9"/>
<circle cx="43.5" cy="118.5" r="14" fill="white" stroke="black" stroke-width="7"/>
<circle cx="132.5" cy="118.5" r="14" fill="white" stroke="black" stroke-width="7"/>
<circle cx="219.5" cy="118.5" r="14" fill="white" stroke="black" stroke-width="7"/>
<circle cx="293.5" cy="118.5" r="14" fill="white" stroke="black" stroke-width="7"/>
</svg>
