<svg width="512" height="168" viewBox="0 0 512 168" fill="none" xmlns="http://www.w3.org/2000/svg">
<rect width="512" height="168" fill="#F5F5F5"/>
<path d="M0 22.013L14.8218 35.9889C16.8631 37.9137 19.5627 38.9857 22.3683 38.9857H62.436C66.171 38.9857 69.6509 37.0905 71.677 33.9527L90.3508 5.03301C92.3769 1.89527 95.8567 0 99.5918 0H290.575C292.795 0 294.963 0.671688 296.794 1.92678L343.723 34.0934C345.116 35.0482 346.71 35.6694 348.381 35.909L491.444 56.4111C495.936 57.0549 499.572 60.3911 500.599 64.8114L510.867 109.024C512.469 115.921 507.233 122.513 500.152 122.513H11C4.92485 122.513 0 117.588 0 111.513V82.013V22.013Z" fill="#727272"/>
<path d="M101.838 12.9608C102.558 11.7453 103.866 11 105.279 11H289.365C290.413 11 291.419 11.4114 292.167 12.1457L311.519 31.1457C314.074 33.6548 312.298 38 308.716 38H94.02C90.9205 38 88.9987 34.6272 90.5788 31.9608L101.838 12.9608Z" fill="white"/>
<path d="M497 66.4632C492.618 67.4927 488.837 70.1697 486.488 73.9052C484.14 77.6407 483.416 82.1288 484.477 86.382C485.538 90.6352 488.296 94.3053 492.145 96.5847C495.993 98.8642 500.618 99.5664 505 98.5368L501 82.5L497 66.4632Z" fill="white"/>
<path d="M1 70.5H16C18.7614 70.5 21 72.7386 21 75.5V84.5C21 87.2614 18.7614 89.5 16 89.5H1V70.5Z" fill="white"/>
<circle cx="87" cy="123" r="41" fill="white" stroke="black" stroke-width="8"/>
<path d="M85.0218 85.2912C85.3603 83.0171 88.6397 83.0171 88.9782 85.2912L92.0866 106.176C92.3076 107.661 94.0248 108.382 95.2396 107.5L112.567 94.9225C114.436 93.5661 116.735 95.931 115.327 97.7609L102.547 114.366C101.612 115.581 102.336 117.353 103.854 117.566L124.891 120.519C127.187 120.842 127.187 124.158 124.891 124.481L103.854 127.434C102.336 127.647 101.612 129.419 102.547 130.634L115.327 147.239C116.735 149.069 114.436 151.434 112.567 150.077L95.2396 137.5C94.0248 136.618 92.3076 137.339 92.0866 138.824L88.9782 159.709C88.6397 161.983 85.3603 161.983 85.0218 159.709L81.9134 138.824C81.6924 137.339 79.9752 136.618 78.7604 137.5L61.4328 150.078C59.5641 151.434 57.2647 149.069 58.673 147.239L71.4528 130.634C72.388 129.419 71.6643 127.647 70.1459 127.434L49.1094 124.481C46.8134 124.158 46.8134 120.842 49.1094 120.519L70.1459 117.566C71.6643 117.353 72.388 115.581 71.4528 114.366L58.673 97.7609C57.2647 95.931 59.5642 93.5661 61.4328 94.9225L78.7604 107.5C79.9752 108.382 81.6924 107.661 81.9134 106.176L85.0218 85.2912Z" fill="black"/>
<ellipse cx="87.5" cy="123" rx="5.5" ry="6" fill="white"/>
<circle cx="408" cy="123" r="41" fill="white" stroke="black" stroke-width="8"/>
<path d="M406.022 85.2912C406.36 83.0171 409.64 83.0171 409.978 85.2912L413.087 106.176C413.308 107.661 415.025 108.382 416.24 107.5L433.567 94.9225C435.436 93.5661 437.735 95.931 436.327 97.7609L423.547 114.366C422.612 115.581 423.336 117.353 424.854 117.566L445.891 120.519C448.187 120.842 448.187 124.158 445.891 124.481L424.854 127.434C423.336 127.647 422.612 129.419 423.547 130.634L436.327 147.239C437.735 149.069 435.436 151.434 433.567 150.077L416.24 137.5C415.025 136.618 413.308 137.339 413.087 138.824L409.978 159.709C409.64 161.983 406.36 161.983 406.022 159.709L402.913 138.824C402.692 137.339 400.975 136.618 399.76 137.5L382.433 150.078C380.564 151.434 378.265 149.069 379.673 147.239L392.453 130.634C393.388 129.419 392.664 127.647 391.146 127.434L370.109 124.481C367.813 124.158 367.813 120.842 370.109 120.519L391.146 117.566C392.664 117.353 393.388 115.581 392.453 114.366L379.673 97.7609C378.265 95.931 380.564 93.5661 382.433 94.9225L399.76 107.5C400.975 108.382 402.692 107.661 402.913 106.176L406.022 85.2912Z" fill="black"/>
<ellipse cx="408.5" cy="123" rx="5.5" ry="6" fill="white"/>
</svg>
