<svg width="351" height="182" viewBox="0 0 351 182" fill="none" xmlns="http://www.w3.org/2000/svg">
<circle cx="84.5" cy="144.5" r="31" fill="white" stroke="black" stroke-width="13"/>
<path d="M84.5 107L87.0831 138.264L111.017 117.983L90.7362 141.917L122 144.5L90.7362 147.083L111.017 171.017L87.0831 150.736L84.5 182L81.9169 150.736L57.9835 171.017L78.2638 147.083L47 144.5L78.2638 141.917L57.9835 117.983L81.9169 138.264L84.5 107Z" fill="#080808"/>
<path d="M54 69H146.621C151.853 69 154.932 74.8762 151.954 79.1779L150.702 80.9867C140.233 96.108 143.489 116.786 158.099 127.958V127.958C163.223 131.877 169.495 134 175.947 134H221.384C234.831 134 247.329 127.073 254.456 115.67L270.663 89.7394C275.269 82.3693 276.046 73.2324 272.75 65.1904L253 17H265L287.476 63.3139C294.05 76.8608 293.413 92.798 285.778 105.777L278 119L268.292 138.416C263.21 148.58 252.822 155 241.459 155H24.2386C13.0523 155 5.73714 143.276 10.6541 133.229V133.229C18.8131 116.556 30.0099 101.551 43.6703 88.9833L48 85L54 69Z" fill="black"/>
<path d="M56.3091 64.0728C58.2147 58.356 63.5646 54.5 69.5906 54.5H80.5L79.934 53.6106C78.6631 51.6135 80.0977 49 82.465 49H84.9481C89.6051 49 94.2179 49.9036 98.5307 51.6607L99.144 51.9105C103.358 53.6273 107.803 54.7094 112.335 55.1214L127.5 56.5H140.5C145.194 56.5 149 60.3056 149 65V65H56L56.3091 64.0728Z" fill="#A77559"/>
<path d="M224.026 22.102C223.026 20.3247 224.053 18.0894 226.053 17.6895L244.5 14V14C246.757 11.4207 249.871 9.74493 253.266 9.28186L259 8.5L277.314 1.8758C280.395 0.761306 283.843 1.79059 285.809 4.41188V4.41188C288.529 8.03919 290 12.451 290 16.9851V24.0294C290 30.292 282.428 33.4283 278 29V29L268.062 21.6545C267.034 20.8946 265.848 20.3758 264.592 20.1366L262.386 19.7164C258.346 18.9468 254.173 20.0381 251.027 22.6876V22.6876C248.041 25.2027 245.599 28.3014 243.853 31.7938L242 35.5L239 41L237 37.5L245 22L228.709 25.9626C227.403 26.2804 226.045 25.6902 225.385 24.5184L224.026 22.102Z" fill="black"/>
<path d="M349.5 128.265C347.746 121.836 344.441 115.879 339.844 110.859C335.247 105.84 329.482 101.894 323.002 99.3319C316.522 96.7696 309.502 95.6601 302.492 96.0904C295.482 96.5207 288.673 98.479 282.597 101.812C276.522 105.145 271.346 109.762 267.475 115.301C263.603 120.841 261.141 127.152 260.282 133.741C259.423 140.33 257.95 147.017 260.282 153.279C255.245 148.652 265 155 260.282 153.279H286.846C284.379 151.013 285.563 149.06 284.421 145.994C283.278 142.927 282.903 139.651 283.324 136.424C283.744 133.197 284.95 130.106 286.846 127.393C288.742 124.68 291.277 122.419 294.253 120.786C297.228 119.154 300.563 118.195 303.996 117.984C307.43 117.773 310.868 118.317 314.042 119.572C317.216 120.827 320.039 122.759 322.291 125.218C324.542 127.676 326.161 130.594 327.02 133.742L349.5 128.265Z" fill="black"/>
<circle cx="306.5" cy="144.5" r="31" fill="white" stroke="black" stroke-width="13"/>
<path d="M306.5 107L309.083 138.264L333.017 117.983L312.736 141.917L344 144.5L312.736 147.083L333.017 171.017L309.083 150.736L306.5 182L303.917 150.736L279.983 171.017L300.264 147.083L269 144.5L300.264 141.917L279.983 117.983L303.917 138.264L306.5 107Z" fill="#080808"/>
<path d="M284 78H295.237C297.588 78 299.783 79.1748 301.087 81.1306V81.1306C304.177 85.7659 304.887 91.5917 303 96.8333L301.5 101H284V78Z" fill="#0A0A0A"/>
</svg>
