<svg width="100" height="100" viewBox="0 0 100 100" fill="none" xmlns="http://www.w3.org/2000/svg">
<rect width="100" height="100" fill="#F5F5F5"/>
<rect width="100" height="100" fill="white"/>
<path d="M50 46L60.25 53V53C66.8472 57.5054 71.536 64.3003 73.4071 72.067L75.9808 82.75H24.0192L26.5929 72.067C28.464 64.3003 33.1528 57.5054 39.75 53V53L50 46Z" fill="#111111"/>
<ellipse cx="50" cy="40.5" rx="15" ry="14.5" fill="#FFCD9E"/>
<line x1="34.8069" y1="41.5388" x2="77.8069" y2="23.5388" stroke="#FF2020"/>
<path d="M61.6698 30.9421C60.8589 29.3265 59.7023 27.8704 58.266 26.6571C56.8298 25.4438 55.1422 24.4969 53.2994 23.8706C51.4566 23.2442 49.4947 22.9507 47.5259 23.0067C45.557 23.0628 43.6197 23.4673 41.8246 24.1972C40.0294 24.927 38.4116 25.968 37.0634 27.2606C35.7153 28.5531 34.6632 30.0721 33.9673 31.7306C33.2714 33.3891 32.9452 35.1548 33.0075 36.9267C33.0698 38.6987 33.5192 40.4422 34.3302 42.0579L48 36.5L61.6698 30.9421Z" fill="#FE0B0B"/>
</svg>
